<svg width="30" height="30" viewBox="0 0 30 30" fill="none" xmlns="http://www.w3.org/2000/svg">
<g clip-path="url(#clip0_215_773)">
<path d="M15 1.28882C7.07162 1.28882 0.644409 7.71602 0.644409 15.6444C0.644409 18.2682 1.34882 20.7273 2.57812 22.8438L11.1106 29.4664C12.3476 29.8138 13.652 30 15 30C22.9284 30 29.3556 23.5728 29.3556 15.6444C29.3556 7.71602 22.9284 1.28882 15 1.28882Z" fill="#F5EBBB"/>
<path d="M27.4733 17.0755C27.3256 17.0755 27.182 16.9989 27.1029 16.8618C26.9849 16.6575 27.0549 16.3961 27.2592 16.2781L27.9528 15.8775C28.1571 15.7598 28.4185 15.8295 28.5365 16.0339C28.6545 16.2383 28.5845 16.4996 28.3802 16.6176L27.6866 17.0181C27.6192 17.057 27.5458 17.0755 27.4733 17.0755Z" fill="#FF7186"/>
<path d="M25.8472 20.6921C25.6112 20.6921 25.4199 20.5008 25.4199 20.2649V19.4639C25.4199 19.2279 25.6112 19.0366 25.8472 19.0366C26.0832 19.0366 26.2745 19.2279 26.2745 19.4639V20.2649C26.2745 20.5008 26.0832 20.6921 25.8472 20.6921Z" fill="#CC0053"/>
<path d="M24.2211 17.0753C24.1485 17.0753 24.0751 17.0568 24.0078 17.0179L23.3141 16.6174C23.1098 16.4994 23.0398 16.2381 23.1578 16.0337C23.2758 15.8293 23.5372 15.7594 23.7415 15.8774L24.4351 16.2779C24.6395 16.3958 24.7094 16.6572 24.5915 16.8615C24.5123 16.9986 24.3687 17.0753 24.2211 17.0753Z" fill="#CC0053"/>
<path d="M25.4252 5.30625L25.9112 5.02558C26.0673 4.93553 26.2515 4.89967 26.4274 4.93869C26.5679 4.96986 26.7185 4.97414 26.8744 4.94443C27.3503 4.85373 27.7177 4.45096 27.7644 3.96873C27.8283 3.30838 27.3109 2.75244 26.6637 2.75244C26.1794 2.75244 25.768 3.06369 25.6183 3.49705C25.558 3.67154 25.441 3.82072 25.2812 3.91301L24.7841 4.2C25.0568 4.52666 25.2753 4.89996 25.4252 5.30625Z" fill="#FF7186"/>
<path d="M26.871 8.26258C26.7161 8.23287 26.5665 8.23668 26.4266 8.26703C26.2513 8.30512 26.0679 8.26908 25.9126 8.17932L25.4252 7.89795C25.2753 8.3043 25.0568 8.67754 24.7841 9.0042L25.274 9.28709C25.4348 9.37996 25.552 9.53043 25.6121 9.70615C25.7608 10.1413 26.1729 10.4543 26.6585 10.4543C27.306 10.4543 27.8236 9.89781 27.7591 9.23699C27.7122 8.75576 27.3458 8.35369 26.871 8.26258Z" fill="#CC0053"/>
<path d="M16.918 4.94543C17.0746 4.97455 17.2257 4.96939 17.3666 4.93722C17.5442 4.89668 17.7307 4.93189 17.8884 5.02295L18.3791 5.30625C18.5291 4.8999 18.7476 4.52666 19.0203 4.2L18.5021 3.90082C18.344 3.80953 18.2276 3.66258 18.1669 3.49043C18.0152 3.06053 17.6056 2.75244 17.1238 2.75244C16.4764 2.75244 15.9589 3.30861 16.0231 3.9692C16.0701 4.45312 16.44 4.85642 16.918 4.94543Z" fill="#CC0053"/>
<path d="M22.5415 10.8732V10.3003C22.3335 10.3362 22.1202 10.3559 21.9022 10.3559C21.6841 10.3559 21.4708 10.3362 21.2629 10.3003V10.8442C21.2629 11.031 21.2008 11.2152 21.0764 11.3546C20.8818 11.5727 20.7721 11.8682 20.8006 12.1896C20.8485 12.7313 21.2995 13.1652 21.8425 13.1937C22.4804 13.2273 23.0082 12.7199 23.0082 12.0892C23.0082 11.8099 22.9044 11.5552 22.7334 11.3607C22.614 11.2249 22.5415 11.0542 22.5415 10.8732Z" fill="#CC0053"/>
<path d="M17.0513 28.0919C16.6822 28.0667 16.3316 27.9208 16.07 27.6592L15.3209 26.9102C15.0469 27.2376 14.7442 27.5402 14.4167 27.8143L15.214 28.6115C15.4569 28.8545 15.6156 29.1735 15.6412 29.5161C15.6534 29.68 15.6967 29.8365 15.765 29.9798C16.622 29.9348 17.459 29.8146 18.2696 29.6257C18.2767 29.5821 18.2822 29.538 18.2847 29.4931C18.3281 28.7389 17.744 28.139 17.0513 28.0919Z" fill="#E80054"/>
<path d="M20.3259 20.9916C19.9919 20.9863 19.6848 21.1064 19.4485 21.3076C19.1742 21.5413 18.83 21.677 18.4697 21.677H16.9622C16.9808 21.8877 16.991 22.1008 16.991 22.3163C16.991 22.5318 16.9808 22.7449 16.9622 22.9556H18.4695C18.8324 22.9556 19.1765 23.0957 19.4539 23.3295C19.6844 23.5237 19.9814 23.6411 20.3047 23.6411C21.0577 23.6411 21.6693 23.0044 21.6275 22.2428C21.5898 21.5564 21.0132 21.0026 20.3259 20.9916Z" fill="#FF7186"/>
<path d="M9.74937 10.5953C9.063 10.6329 8.50917 11.2096 8.49822 11.8969C8.49289 12.2309 8.613 12.5379 8.81421 12.7742C9.04789 13.0485 9.18359 13.3927 9.18359 13.7531V15.1768C9.39429 15.1581 9.6074 15.148 9.82291 15.148C10.0384 15.148 10.2515 15.1581 10.4622 15.1768V13.7532C10.4622 13.3904 10.6023 13.0463 10.8361 12.7689C11.0303 12.5384 11.1478 12.2414 11.1478 11.9181C11.1478 11.1651 10.511 10.5536 9.74937 10.5953Z" fill="#E80054"/>
<path d="M24.7648 16.0688C24.7549 16.2336 24.7666 16.5727 24.9868 16.8339C25.1651 17.0455 25.4376 17.1571 25.7972 17.1662L26.2552 17.826C26.2617 17.8979 26.293 18.0778 26.4449 18.2198C26.5968 18.3618 26.8203 18.4235 27.1094 18.4027C27.2522 18.3924 27.3527 18.4266 27.4165 18.507C27.4298 18.5238 27.4408 18.5428 27.4508 18.5627C27.6243 18.2783 27.7244 17.9441 27.7244 17.5864C27.7244 16.5497 26.884 15.7092 25.8472 15.7092C25.4355 15.7092 25.055 15.8421 24.7456 16.0668L24.7648 16.0688Z" fill="#FF4155"/>
<path d="M27.5029 18.4714C27.4295 18.3649 27.3056 18.2971 27.1027 18.3117C26.3425 18.3661 26.345 17.7952 26.345 17.7952L25.8454 17.0754C24.6785 17.0754 24.865 15.9875 24.8651 15.9868C24.3282 16.3171 23.97 16.91 23.97 17.5867C23.97 18.6235 24.8104 19.4639 25.8471 19.4639C26.5639 19.4638 27.1866 19.062 27.5029 18.4714Z" fill="#E80054"/>
<path d="M25.8472 16.1367C25.6112 16.1367 25.4199 15.9453 25.4199 15.7094V14.9085C25.4199 14.6725 25.6112 14.4812 25.8472 14.4812C26.0832 14.4812 26.2745 14.6725 26.2745 14.9085V15.7094C26.2745 15.9453 26.0832 16.1367 25.8472 16.1367Z" fill="#FF7186"/>
<path d="M28.166 19.353C28.0935 19.353 28.0201 19.3347 27.9528 19.2957L27.2591 18.8953C27.0548 18.7773 26.9847 18.516 27.1027 18.3116C27.2207 18.1073 27.4821 18.0372 27.6864 18.1552L28.3801 18.5556C28.5845 18.6737 28.6545 18.9349 28.5365 19.1394C28.4573 19.2764 28.3137 19.353 28.166 19.353Z" fill="#FF7186"/>
<path d="M23.5283 19.353C23.3807 19.353 23.2371 19.2764 23.1579 19.1393C23.0399 18.9349 23.1099 18.6736 23.3143 18.5555L24.0079 18.1551C24.2123 18.0373 24.4736 18.1072 24.5916 18.3115C24.7096 18.5158 24.6396 18.7772 24.4352 18.8952L23.7416 19.2957C23.6743 19.3345 23.6008 19.353 23.5283 19.353Z" fill="#FF7186"/>
<path d="M6.04048 18.5878C5.968 18.9194 5.57953 21.1207 7.8263 21.778L9.62138 23.9731C9.61564 24.2399 9.63205 25.8994 10.8581 27.055C11.6432 27.795 12.7516 28.1591 14.1581 28.1449C15.9356 26.8207 17.0869 24.7031 17.0869 22.3162C17.0869 18.3044 13.8347 15.0522 9.82294 15.0522C7.91531 15.0522 6.17982 15.7879 4.88367 16.9906L6.04048 18.5878Z" fill="#FF4155"/>
<path d="M14.2748 28.0563C9.51205 28.175 9.71033 23.9431 9.71033 23.9431L7.87705 21.7013C5.48062 21.0197 6.13523 18.5688 6.13523 18.5688L4.94871 16.9307C3.48105 18.2598 2.55896 20.1803 2.55896 22.3164C2.55896 22.4938 2.56564 22.6696 2.57818 22.8439C4.43191 26.0354 7.4799 28.4469 11.1107 29.4666C12.2882 29.2558 13.3672 28.7612 14.2748 28.0563Z" fill="#E80054"/>
<path d="M19.7636 4.94808C20.2161 5.97546 21.0162 6.52665 22.08 6.54499L22.9118 8.10581C22.886 8.24257 22.8221 8.73722 23.1421 9.14591C23.3678 9.43407 23.7304 9.61062 24.2219 9.67419C25.151 8.97142 25.7517 7.85714 25.7517 6.60229C25.7517 4.47622 24.0282 2.75269 21.9021 2.75269C20.9567 2.75269 20.0914 3.09405 19.4214 3.65948C19.4566 3.95872 19.5445 4.4505 19.7636 4.94808Z" fill="#FF4155"/>
<path d="M19.2919 7.37115L17.894 8.17822C17.7384 8.2681 17.5545 8.30402 17.3789 8.26535C17.2386 8.23447 17.0884 8.23031 16.9329 8.25996C16.4573 8.35072 16.0902 8.7532 16.0434 9.23507C15.9791 9.89566 16.4966 10.4519 17.144 10.4519C17.6287 10.4519 18.0404 10.1401 18.1898 9.70605C18.25 9.53115 18.3671 9.3815 18.5273 9.28898L19.9123 8.48929C20.2072 8.31908 20.3361 7.94789 20.1853 7.64267C20.02 7.30822 19.6099 7.18757 19.2919 7.37115Z" fill="#FF7186"/>
<path d="M21.8426 0.00157025C21.2996 0.0301054 20.8486 0.463992 20.8007 1.00563C20.7723 1.32708 20.8819 1.62257 21.0765 1.84071C21.2009 1.98011 21.263 2.16432 21.263 2.35112V4.1169C21.263 4.45739 21.5199 4.7547 21.8597 4.77673C22.232 4.80087 22.5416 4.50597 22.5416 4.13882V2.32206C22.5416 2.14112 22.6141 1.97044 22.7335 1.8345C22.9045 1.64003 23.0084 1.38532 23.0084 1.106C23.0083 0.475418 22.4805 -0.0319454 21.8426 0.00157025Z" fill="#FF7186"/>
<path d="M4.01778 15.1039C3.9688 14.3867 3.32772 13.7996 2.55657 13.8787C1.92077 13.944 1.41417 14.4714 1.37374 15.1093C1.32593 15.8638 1.90431 16.4652 2.59554 16.5177C2.95571 16.5451 3.29597 16.6934 3.55132 16.9488L5.20208 18.5995C5.46171 18.859 5.88868 18.8488 6.13513 18.5687C6.36007 18.313 6.33177 17.921 6.09095 17.6801L4.4471 16.0363C4.19749 15.7866 4.04186 15.4562 4.01778 15.1039Z" fill="#FF7186"/>
<path d="M17.0587 16.5182C17.7494 16.4674 18.3295 15.868 18.2846 15.1146C18.2467 14.4775 17.7438 13.9485 17.1094 13.8796C16.3376 13.7957 15.6906 14.3812 15.6405 15.1015C15.6163 15.45 15.459 15.776 15.2119 16.0231L13.6065 17.6284C13.3657 17.8692 13.3374 18.2611 13.5621 18.5168C13.8085 18.797 14.2356 18.8074 14.4954 18.5478L16.0933 16.9499C16.3511 16.6922 16.6952 16.545 17.0587 16.5182Z" fill="#FF7186"/>
<path d="M13.1678 21.8786C13.5182 21.4922 13.489 20.895 13.1026 20.5446C12.7163 20.1943 12.1191 20.2234 11.7687 20.6098C11.4183 20.9961 11.4475 21.5934 11.8338 21.9437C12.2202 22.2941 12.8174 22.2649 13.1678 21.8786Z" fill="#E80054"/>
<path d="M8.15868 25.0056C9.07784 25.0056 9.82297 24.2605 9.82297 23.3413C9.82297 22.4221 9.07784 21.677 8.15868 21.677C7.23951 21.677 6.49438 22.4221 6.49438 23.3413C6.49438 24.2605 7.23951 25.0056 8.15868 25.0056Z" fill="#CC0053"/>
<path d="M12.8406 24.7976H12.8007C12.5647 24.7976 12.3734 24.6063 12.3734 24.3704C12.3734 24.1344 12.5647 23.9431 12.8007 23.9431H12.8406C13.0767 23.9431 13.2679 24.1344 13.2679 24.3704C13.2679 24.6063 13.0767 24.7976 12.8406 24.7976Z" fill="#FF7186"/>
<path d="M26.1088 17.8665H26.0689C25.8329 17.8665 25.6416 17.6752 25.6416 17.4392C25.6416 17.2032 25.8329 17.012 26.0689 17.012H26.1088C26.3448 17.012 26.5361 17.2033 26.5361 17.4392C26.5361 17.6752 26.3448 17.8665 26.1088 17.8665Z" fill="#CC0053"/>
<path d="M26.6126 16.7589H26.5875C26.439 16.7589 26.3186 16.6386 26.3186 16.4901C26.3186 16.3415 26.439 16.2212 26.5875 16.2212H26.6126C26.7611 16.2212 26.8815 16.3415 26.8815 16.4901C26.8815 16.6386 26.7611 16.7589 26.6126 16.7589Z" fill="#FF7186"/>
<path d="M23.0082 8.0919L22.1353 6.45374C19.9837 6.45374 19.5806 4.29714 19.5063 3.59009C18.6208 4.29538 18.0526 5.38206 18.0526 6.6021C18.0526 8.72817 19.7761 10.4517 21.9022 10.4517C22.8201 10.4517 23.6625 10.13 24.324 9.59384C22.677 9.43329 23.0082 8.0919 23.0082 8.0919Z" fill="#E80054"/>
<path d="M22.7241 8.13568C23.2455 8.13568 23.6681 7.71301 23.6681 7.19162C23.6681 6.67023 23.2455 6.24756 22.7241 6.24756C22.2027 6.24756 21.78 6.67023 21.78 7.19162C21.78 7.71301 22.2027 8.13568 22.7241 8.13568Z" fill="#CC0053"/>
<path d="M26.9734 4.40448C27.248 4.40448 27.4706 4.18184 27.4706 3.9072C27.4706 3.63255 27.248 3.40991 26.9734 3.40991C26.6987 3.40991 26.4761 3.63255 26.4761 3.9072C26.4761 4.18184 26.6987 4.40448 26.9734 4.40448Z" fill="#F9A0B1"/>
<path d="M26.9734 9.67352C27.248 9.67352 27.4706 9.45088 27.4706 9.17624C27.4706 8.9016 27.248 8.67896 26.9734 8.67896C26.6987 8.67896 26.4761 8.9016 26.4761 9.17624C26.4761 9.45088 26.6987 9.67352 26.9734 9.67352Z" fill="#E80054"/>
<path d="M17.4355 4.10764C17.6983 4.02799 17.8468 3.75036 17.7672 3.48753C17.6875 3.22469 17.4099 3.07619 17.147 3.15584C16.8842 3.23548 16.7357 3.51312 16.8154 3.77595C16.895 4.03878 17.1726 4.18729 17.4355 4.10764Z" fill="#E80054"/>
<path d="M22.6264 1.38747C22.8206 1.1933 22.8206 0.878481 22.6264 0.684308C22.4322 0.490135 22.1174 0.490135 21.9232 0.684308C21.7291 0.878481 21.7291 1.1933 21.9232 1.38747C22.1174 1.58164 22.4322 1.58164 22.6264 1.38747Z" fill="#F9A0B1"/>
<path d="M1.09875 12.0478C1.93325 13.029 3.90481 12.9341 5.21485 10.911C6.91407 8.28682 10.7031 9.70701 13.0917 7.3185C14.811 5.59912 13.7277 2.84076 12.9857 1.43018C7.20692 2.2417 2.53184 6.49285 1.09875 12.0478Z" fill="#FBFAF4"/>
<path d="M28.0483 21.6359C26.4827 21.5015 24.0147 21.5977 23.1005 23.3414C21.8401 25.745 18.3183 26.4429 19.9019 29.141C23.5162 27.8279 26.4531 25.1044 28.0483 21.6359Z" fill="#FBFAF4"/>
<path d="M10.2026 12.29C10.506 12.29 10.752 12.0441 10.752 11.7407C10.752 11.4373 10.506 11.1914 10.2026 11.1914C9.89926 11.1914 9.65332 11.4373 9.65332 11.7407C9.65332 12.0441 9.89926 12.29 10.2026 12.29Z" fill="#FF4155"/>
<path d="M17.2776 15.6016C17.581 15.6016 17.8269 15.3556 17.8269 15.0522C17.8269 14.7489 17.581 14.5029 17.2776 14.5029C16.9742 14.5029 16.7283 14.7489 16.7283 15.0522C16.7283 15.3556 16.9742 15.6016 17.2776 15.6016Z" fill="#F9A0B1"/>
<path d="M2.8125 15.6016C3.11588 15.6016 3.36182 15.3556 3.36182 15.0522C3.36182 14.7489 3.11588 14.5029 2.8125 14.5029C2.50912 14.5029 2.26318 14.7489 2.26318 15.0522C2.26318 15.3556 2.50912 15.6016 2.8125 15.6016Z" fill="#F9A0B1"/>
<path d="M20.5979 22.6926C20.9013 22.6926 21.1472 22.4467 21.1472 22.1433C21.1472 21.8399 20.9013 21.594 20.5979 21.594C20.2945 21.594 20.0486 21.8399 20.0486 22.1433C20.0486 22.4467 20.2945 22.6926 20.5979 22.6926Z" fill="#F9A0B1"/>
<path d="M17.0869 29.6902C17.3903 29.6902 17.6362 29.4442 17.6362 29.1409C17.6362 28.8375 17.3903 28.5916 17.0869 28.5916C16.7835 28.5916 16.5376 28.8375 16.5376 29.1409C16.5376 29.4442 16.7835 29.6902 17.0869 29.6902Z" fill="#FF4155"/>
</g>
<defs>
<clipPath id="clip0_215_773">
<rect width="30" height="30" fill="white"/>
</clipPath>
</defs>
</svg>
