<svg width="36" height="36" viewBox="0 0 36 36" fill="none" xmlns="http://www.w3.org/2000/svg">
<path d="M27.1891 21.4033C24.6869 21.4033 22.6512 23.4389 22.6512 25.9411C22.6512 28.4434 24.6869 30.479 27.1891 30.479C29.6917 30.479 31.7269 28.4434 31.7269 25.9411C31.7269 23.4389 29.6913 21.4033 27.1891 21.4033ZM27.1891 28.2101C25.9378 28.2101 24.9202 27.1924 24.9202 25.9411C24.9202 24.6899 25.9378 23.6722 27.1891 23.6722C28.4404 23.6722 29.458 24.6899 29.458 25.9411C29.458 27.1925 28.4404 28.2101 27.1891 28.2101Z" fill="#ED2D38"/>
<path d="M11.6849 21.4033C9.18271 21.4033 7.14709 23.4389 7.14709 25.9411C7.14709 28.4434 9.18271 30.479 11.6849 30.479C14.1871 30.479 16.2228 28.4434 16.2228 25.9411C16.2228 23.4389 14.1871 21.4033 11.6849 21.4033ZM11.6849 28.2101C10.4336 28.2101 9.41601 27.1924 9.41601 25.9411C9.41601 24.6899 10.4336 23.6722 11.6849 23.6722C12.9359 23.6722 13.9538 24.6899 13.9538 25.9411C13.9538 27.1925 12.9362 28.2101 11.6849 28.2101Z" fill="#ED2D38"/>
<path d="M30.245 8.41452C30.0521 8.03146 29.66 7.78979 29.2311 7.78979H23.2563V10.0587H28.5315L31.6206 16.2029L33.6483 15.1834L30.245 8.41452Z" fill="#ED2D38"/>
<path d="M23.7857 24.8445H15.2017V27.1134H23.7857V24.8445Z" fill="#ED2D38"/>
<path d="M8.2815 24.8445H4.34878C3.72215 24.8445 3.21436 25.3523 3.21436 25.9789C3.21436 26.6055 3.72222 27.1133 4.34878 27.1133H8.28157C8.90819 27.1133 9.41599 26.6055 9.41599 25.9789C9.41599 25.3523 8.90812 24.8445 8.2815 24.8445Z" fill="#ED2D38"/>
<path d="M35.7618 17.9092L33.5304 15.0353C33.316 14.7584 32.9851 14.5966 32.6345 14.5966H24.3908V6.65542C24.3908 6.02879 23.8829 5.521 23.2564 5.521H4.34878C3.72215 5.521 3.21436 6.02886 3.21436 6.65542C3.21436 7.28197 3.72222 7.78984 4.34878 7.78984H22.1219V15.731C22.1219 16.3576 22.6297 16.8654 23.2563 16.8654H32.079L33.7311 18.9936V24.8444H30.5924C29.9658 24.8444 29.458 25.3523 29.458 25.9788C29.458 26.6055 29.9659 27.1133 30.5924 27.1133H34.8655C35.4921 27.1133 35.9999 26.6054 36 25.9788V18.605C36 18.3532 35.9161 18.1081 35.7618 17.9092Z" fill="#ED2D38"/>
<path d="M8.20585 19.0967H2.98733C2.3607 19.0967 1.85291 19.6045 1.85291 20.2311C1.85291 20.8577 2.36077 21.3655 2.98733 21.3655H8.20578C8.8324 21.3655 9.3402 20.8577 9.3402 20.2311C9.34027 19.6045 8.8324 19.0967 8.20585 19.0967Z" fill="#ED2D38"/>
<path d="M10.8151 14.6345H1.13442C0.507867 14.6345 0 15.1424 0 15.769C0 16.3956 0.507867 16.9034 1.13442 16.9034H10.8151C11.4417 16.9034 11.9495 16.3956 11.9495 15.769C11.9495 15.1425 11.4417 14.6345 10.8151 14.6345Z" fill="#ED2D38"/>
<path d="M12.668 10.1724H2.98733C2.3607 10.1724 1.85291 10.6802 1.85291 11.3068C1.85291 11.9334 2.36077 12.4412 2.98733 12.4412H12.668C13.2946 12.4412 13.8024 11.9333 13.8024 11.3068C13.8025 10.6802 13.2946 10.1724 12.668 10.1724Z" fill="#ED2D38"/>
</svg>
