<svg width="39" height="33" viewBox="0 0 39 33" fill="none" xmlns="http://www.w3.org/2000/svg">
<path d="M20.7871 0.5L19.4688 8.92285C18.9316 12.0479 18.0527 15.0264 16.832 17.8584C15.6113 20.6904 14.0732 23.3516 12.2178 25.8418C10.3623 28.2832 8.2627 30.5293 5.91895 32.5801L0.865234 28.5518C3.35547 25.6221 5.45508 22.5947 7.16406 19.4697C8.87305 16.3447 10.0938 12.9023 10.8262 9.14258L12.291 0.5H20.7871ZM38.1455 0.5L36.8271 8.92285C36.29 12.0479 35.4111 15.0264 34.1904 17.8584C32.9697 20.6904 31.4316 23.3516 29.5762 25.8418C27.7207 28.2832 25.6211 30.5293 23.2773 32.5801L18.2236 28.5518C20.7139 25.6221 22.8135 22.5947 24.5225 19.4697C26.2314 16.3447 27.4521 12.9023 28.1846 9.14258L29.6494 0.5H38.1455Z" fill="#655568" fill-opacity="0.23"/>
</svg>
