<svg width="64" height="64" viewBox="0 0 64 64" fill="none" xmlns="http://www.w3.org/2000/svg">
<path d="M50.3469 45.9281L63.7312 59.3094L59.3094 63.7312L45.9281 50.3469C40.9492 54.3382 34.7563 56.5091 28.375 56.5C12.85 56.5 0.25 43.9 0.25 28.375C0.25 12.85 12.85 0.25 28.375 0.25C43.9 0.25 56.5 12.85 56.5 28.375C56.5091 34.7563 54.3382 40.9492 50.3469 45.9281ZM44.0781 43.6094C48.0441 39.5309 50.259 34.0638 50.25 28.375C50.25 16.2875 40.4594 6.5 28.375 6.5C16.2875 6.5 6.5 16.2875 6.5 28.375C6.5 40.4594 16.2875 50.25 28.375 50.25C34.0638 50.259 39.5309 48.0441 43.6094 44.0781L44.0781 43.6094ZM25.25 25.25V15.875H31.5V25.25H40.875V31.5H31.5V40.875H25.25V31.5H15.875V25.25H25.25Z" fill="#4E3362"/>
</svg>
